<?xml version="1.0" encoding="UTF-8" standalone="no"?>
<!-- Created with Inkscape (http://www.inkscape.org/) -->

<svg
   width="512"
   height="512"
   viewBox="0 0 135.46667 135.46667"
   version="1.1"
   id="svg5"
   inkscape:version="1.1 (c68e22c387, 2021-05-23)"
   sodipodi:docname="logo512x512.svg"
   xmlns:inkscape="http://www.inkscape.org/namespaces/inkscape"
   xmlns:sodipodi="http://sodipodi.sourceforge.net/DTD/sodipodi-0.dtd"
   xmlns="http://www.w3.org/2000/svg"
   xmlns:svg="http://www.w3.org/2000/svg">
  <sodipodi:namedview
     id="namedview7"
     pagecolor="#ffffff"
     bordercolor="#666666"
     borderopacity="1.0"
     inkscape:pageshadow="2"
     inkscape:pageopacity="0.0"
     inkscape:pagecheckerboard="0"
     inkscape:document-units="mm"
     showgrid="false"
     units="px"
     inkscape:zoom="0.70710681"
     inkscape:cx="40.805707"
     inkscape:cy="359.86092"
     inkscape:window-width="1920"
     inkscape:window-height="991"
     inkscape:window-x="-9"
     inkscape:window-y="-9"
     inkscape:window-maximized="1"
     inkscape:current-layer="g77311" />
  <defs
     id="defs2">
    <inkscape:path-effect
       effect="fillet_chamfer"
       id="path-effect1967"
       is_visible="true"
       lpeversion="1"
       satellites_param="F,0,0,1,0,2.6458333,0,1 @ F,0,0,1,0,2.6458333,0,1 @ F,0,0,1,0,2.6458333,0,1 @ F,0,0,1,0,2.6458333,0,1 @ F,0,0,1,0,2.6458333,0,1 @ F,0,0,1,0,2.6458333,0,1 @ F,0,0,1,0,2.6458333,0,1 @ F,0,0,1,0,2.6458333,0,1 @ F,0,0,1,0,2.6458333,0,1 @ F,0,0,1,0,2.6458333,0,1"
       unit="px"
       method="auto"
       mode="F"
       radius="10"
       chamfer_steps="1"
       flexible="false"
       use_knot_distance="true"
       apply_no_radius="true"
       apply_with_radius="true"
       only_selected="false"
       hide_knots="false" />
    <inkscape:path-effect
       effect="fillet_chamfer"
       id="path-effect1965"
       is_visible="true"
       lpeversion="1"
       satellites_param="F,0,0,1,0,2.6458333,0,1 @ F,0,0,1,0,2.6458333,0,1 @ F,0,0,1,0,2.6458333,0,1 @ F,0,0,1,0,2.6458333,0,1 @ F,0,0,1,0,2.6458333,0,1 @ F,0,0,1,0,2.6458333,0,1"
       unit="px"
       method="auto"
       mode="F"
       radius="10"
       chamfer_steps="1"
       flexible="false"
       use_knot_distance="true"
       apply_no_radius="true"
       apply_with_radius="true"
       only_selected="false"
       hide_knots="false" />
    <inkscape:path-effect
       effect="fillet_chamfer"
       id="path-effect1963"
       is_visible="true"
       lpeversion="1"
       satellites_param="F,0,0,1,0,2.6458333,0,1 @ F,0,0,1,0,2.6458333,0,1 @ F,0,0,1,0,2.6458333,0,1 @ F,0,0,1,0,2.6458333,0,1 @ F,0,0,1,0,2.6458333,0,1 @ F,0,0,1,0,2.6458333,0,1"
       unit="px"
       method="auto"
       mode="F"
       radius="10"
       chamfer_steps="1"
       flexible="false"
       use_knot_distance="true"
       apply_no_radius="true"
       apply_with_radius="true"
       only_selected="false"
       hide_knots="false" />
    <inkscape:path-effect
       effect="fillet_chamfer"
       id="path-effect1923"
       is_visible="true"
       lpeversion="1"
       satellites_param="F,0,0,1,0,2.6458333,0,1 @ F,0,0,1,0,2.6458333,0,1 @ F,0,0,1,0,2.6458333,0,1 @ F,0,0,1,0,2.6458333,0,1"
       unit="px"
       method="auto"
       mode="F"
       radius="10"
       chamfer_steps="1"
       flexible="false"
       use_knot_distance="true"
       apply_no_radius="true"
       apply_with_radius="true"
       only_selected="false"
       hide_knots="false" />
  </defs>
  <g
     inkscape:label="Warstwa 1"
     inkscape:groupmode="layer"
     id="layer1">
    <g
       id="g77311"
       transform="matrix(1.0628314,0,0,1.0663544,1.0115006,3.022237)">
      <path
         style="color:#000000;fill:#0284c7;stroke-width:4.34652px;-inkscape-stroke:none;fill-opacity:1"
         d="M 3.6199819,33.645061 36.157284,24.771252 a 2.0538005,2.0538005 36.924852 0 1 2.59394,1.949345 l 1.438243,92.047193 a 1.8757773,1.8757773 143.76989 0 1 -2.468722,1.80882 L 3.9576629,109.32225 A 3.6908124,3.6908124 54.070568 0 1 1.434037,105.83976 L 1.0809459,36.987025 a 3.4457068,3.4457068 127.22553 0 1 2.539036,-3.341964 z"
         id="path1631"
         inkscape:path-effect="#path-effect1923"
         inkscape:original-d="M 1.0673777,34.341226 38.709888,24.075087 40.230803,121.4133 1.4476052,108.48556 Z" />
      <path
         style="fill:#0284c7;fill-opacity:1;stroke:none;stroke-width:4.34652px;stroke-linecap:butt;stroke-linejoin:miter;stroke-opacity:1"
         d="M 81.572448,68.337757 58.817266,30.58866 a 6.9455852,6.9455852 38.06469 0 0 -3.89329,-3.048858 l -9.410869,-2.915126 a 1.9204978,1.9204978 143.18528 0 0 -2.488549,1.86267 l 1.350269,92.048514 a 1.8757778,1.8757778 34.494522 0 0 2.522374,1.73323 L 80.303922,107.9973 a 3.8020234,3.8020234 124.99535 0 0 2.491012,-3.55814 l 0.03938,-13.99256 a 1886.9747,1886.9747 90.24158 0 1 0.02231,-5.291615 l 0.06689,-11.905457 a 9.4117425,9.4117425 74.620159 0 0 -1.351067,-4.911771 z"
         id="path1631-5"
         sodipodi:nodetypes="ccccccc"
         inkscape:path-effect="#path-effect1963"
         inkscape:original-d="M 82.938381,70.603736 57.451333,28.322681 42.98575,23.841797 l 1.427885,97.339613 38.373853,-14.09643 0.05427,-19.284203 z" />
      <path
         style="fill:#0284c7;fill-opacity:1;stroke:none;stroke-width:4.34652px;stroke-linecap:butt;stroke-linejoin:miter;stroke-opacity:1"
         d="M 87.836116,67.946997 110.81059,28.841984 a 7.8201093,7.8201093 139.12713 0 1 3.7903,-3.280121 l 5.8922,-2.402194 a 1.8310301,1.8310301 33.134821 0 1 2.52161,1.646004 l 2.49024,92.024727 a 1.8757775,1.8757775 143.11499 0 1 -2.44789,1.83693 L 89.167551,107.79961 a 3.6338901,3.6338901 53.838395 0 1 -2.524226,-3.45377 l -0.02503,-13.889541 a 1082.1623,1082.1623 89.756652 0 0 -0.02248,-5.291603 l -0.08225,-12.290665 a 9.5997547,9.5997547 105.02555 0 1 1.322551,-4.927034 z"
         id="path1631-0"
         sodipodi:nodetypes="ccccccc"
         inkscape:path-effect="#path-effect1965"
         inkscape:original-d="m 86.495859,70.228257 25.654991,-43.667533 10.79228,-4.399916 2.63338,97.314462 -38.928416,-12.4836 -0.03457,-19.1812 z" />
      <path
         style="fill:#ffffff;fill-opacity:1;stroke:none;stroke-width:4.34652px;stroke-linecap:butt;stroke-linejoin:miter;stroke-opacity:1"
         d="M 8.4019136,67.664387 22.820238,58.052169 a 5.5203461,5.5203461 171.91775 0 1 4.724487,-0.6709 l 34.687718,10.954018 a 9.4795903,9.4795903 33.120437 0 1 4.268744,2.78493 L 83.54201,90.527828 a 2.9359072,2.9359072 6.6901924 0 0 3.904155,0.457955 L 108.60455,75.985447 a 2.6725132,2.6725132 9.3776569 0 1 3.71024,0.61274 l 0.88877,1.227349 a 2.6094236,2.6094236 99.487183 0 1 -0.61246,3.664938 L 87.451999,99.168933 a 3.0326538,3.0326538 5.9871489 0 1 -3.965673,-0.41591 L 61.994141,75.63264 A 10.253764,10.253764 32.621435 0 0 57.678585,72.870452 L 27.916078,63.112251 a 5.4249973,5.4249973 172.15369 0 0 -4.71163,0.649294 L 11.439746,71.650813 A 2.8105687,2.8105687 9.4253616 0 1 7.6387762,71.019838 2.3600105,2.3600105 102.81295 0 1 8.4019136,67.664387 Z"
         id="path4368"
         inkscape:path-effect="#path-effect1967"
         inkscape:original-d="M 6.2004473,69.132031 25.021704,56.584525 64.755464,69.132031 85.287733,92.516014 110.76298,74.455216 114.75537,79.968507 85.287733,100.6909 60.192734,73.694763 25.401929,62.28794 9.2422653,73.124418 Z" />
      <g
         style="fill:#000000"
         id="g1838"
         transform="matrix(1.3851579,0,0,1.3851579,21.725265,-9.426833)">
        <path
           d="M 0,0 H 24 V 24 H 0 Z"
           fill="none"
           id="path1823" />
      </g>
      <g
         id="g2770"
         transform="matrix(2.9830298,0,0,3.2294151,-19.108591,-11.032199)"
         style="fill:#0d9488;fill-opacity:1">
        <path
           d="m 34.763154,3.0515588 c -3.87,0 -7,3.13 -7,7.0000002 0,5.25 7,13 7,13 0,0 7,-7.75 7,-13 0,-3.8700002 -3.13,-7.0000002 -7,-7.0000002 z m -5,7.0000002 c 0,-2.7600002 2.24,-5.0000002 5,-5.0000002 2.76,0 5,2.24 5,5.0000002 0,2.88 -2.88,7.19 -5,9.88 -2.08,-2.67 -5,-7.03 -5,-9.88 z"
           id="path1825"
           style="fill:#0d9488;fill-opacity:1;stroke:none;stroke-opacity:1" />
        <path
           style="fill:#0d9488;fill-opacity:1;stroke:none;stroke-width:1px;stroke-linecap:butt;stroke-linejoin:miter;stroke-opacity:1"
           d="m 34.500278,21.147905 -3.340246,-4.63923 -2.22683,-4.515517 V 8.405487 l 0.494851,-1.36084 0.86599,-1.051559 1.051558,-0.989702 1.237128,-0.494852 1.298985,-0.309282 0.654846,-0.03948 0.481129,0.0328 0.557674,0.04374 0.546738,0.131217 0.820108,0.131217 0.776369,0.27337 0.833294,0.664262 0.82879,0.965018 0.874782,1.137216 0.48113,1.224694 0.131217,1.92452 -0.524869,2.230693 -2.624345,4.767559 -1.705824,2.36191 z"
           id="path2439" />
        <circle
           cx="34.763153"
           cy="10.051558"
           id="circle1827"
           style="fill:#ffffff;fill-opacity:1"
           r="2.5" />
      </g>
    </g>
  </g>
</svg>
